<mxfile host="Electron" agent="Mozilla/5.0 (Macintosh; Intel Mac OS X 10_15_7) AppleWebKit/537.36 (KHTML, like Gecko) draw.io/27.0.9 Chrome/134.0.6998.205 Electron/35.4.0 Safari/537.36" version="27.0.9">
  <diagram name="Page-1" id="qDGQDkPgU14C5JTouNm-">
    <mxGraphModel dx="815" dy="491" grid="1" gridSize="10" guides="1" tooltips="1" connect="1" arrows="1" fold="1" page="1" pageScale="1" pageWidth="850" pageHeight="1100" math="1" shadow="0">
      <root>
        <mxCell id="0" />
        <mxCell id="1" value="Robot" style="locked=1;" parent="0" />
        <mxCell id="FI1ZCEWXshxIChQXKT9G-6" value="" style="rounded=1;whiteSpace=wrap;html=1;rotation=90;glass=0;shadow=0;arcSize=50;dashed=1;fillColor=#ffe6cc;strokeColor=#d79b00;" parent="1" vertex="1">
          <mxGeometry x="329.5" y="489.5" width="59" height="20" as="geometry" />
        </mxCell>
        <mxCell id="cDLoAeZumCPzplCaYUsG-3" value="" style="rounded=1;whiteSpace=wrap;html=1;rotation=60;glass=0;shadow=0;arcSize=50;dashed=1;fillColor=#ffe6cc;strokeColor=#d79b00;" parent="1" vertex="1">
          <mxGeometry x="340" y="487" width="59" height="20" as="geometry" />
        </mxCell>
        <mxCell id="FI1ZCEWXshxIChQXKT9G-7" value="" style="rounded=1;whiteSpace=wrap;html=1;rotation=90;glass=0;shadow=0;arcSize=50;dashed=1;fillColor=#ffe6cc;strokeColor=#d79b00;" parent="1" vertex="1">
          <mxGeometry x="330" y="530" width="59" height="20" as="geometry" />
        </mxCell>
        <mxCell id="FI1ZCEWXshxIChQXKT9G-16" value="" style="rounded=1;whiteSpace=wrap;html=1;rotation=-45;glass=0;shadow=0;arcSize=50;dashed=1;fillColor=#e1d5e7;strokeColor=#9673a6;" parent="1" vertex="1">
          <mxGeometry x="343" y="455" width="59" height="20" as="geometry" />
        </mxCell>
        <mxCell id="FI1ZCEWXshxIChQXKT9G-17" value="" style="rounded=1;whiteSpace=wrap;html=1;rotation=45;glass=0;shadow=0;arcSize=50;dashed=1;fillColor=#d5e8d4;strokeColor=#82b366;" parent="1" vertex="1">
          <mxGeometry x="371" y="454" width="59" height="20" as="geometry" />
        </mxCell>
        <mxCell id="cDLoAeZumCPzplCaYUsG-4" value="" style="rounded=1;whiteSpace=wrap;html=1;rotation=30;glass=0;shadow=0;arcSize=50;dashed=1;fillColor=#ffe6cc;strokeColor=#d79b00;" parent="1" vertex="1">
          <mxGeometry x="367" y="514" width="59" height="20" as="geometry" />
        </mxCell>
        <mxCell id="cDLoAeZumCPzplCaYUsG-5" value="" style="ellipse;whiteSpace=wrap;html=1;aspect=fixed;strokeColor=#000000;" parent="1" vertex="1">
          <mxGeometry x="374" y="508" width="10" height="10" as="geometry" />
        </mxCell>
        <mxCell id="FI1ZCEWXshxIChQXKT9G-14" value="" style="rounded=1;whiteSpace=wrap;html=1;rotation=45;glass=0;shadow=0;arcSize=50;dashed=1;fillColor=#ffe6cc;strokeColor=#d79b00;" parent="1" vertex="1">
          <mxGeometry x="343" y="484" width="59" height="20" as="geometry" />
        </mxCell>
        <mxCell id="FI1ZCEWXshxIChQXKT9G-15" value="" style="rounded=1;whiteSpace=wrap;html=1;rotation=0;glass=0;shadow=0;arcSize=50;dashed=1;fillColor=#ffe6cc;strokeColor=#d79b00;" parent="1" vertex="1">
          <mxGeometry x="376" y="498" width="59" height="20" as="geometry" />
        </mxCell>
        <mxCell id="FI1ZCEWXshxIChQXKT9G-2" value="circle" style="locked=1;" parent="0" />
        <mxCell id="FI1ZCEWXshxIChQXKT9G-3" value="" style="ellipse;whiteSpace=wrap;html=1;aspect=fixed;strokeColor=#000000;" parent="FI1ZCEWXshxIChQXKT9G-2" vertex="1">
          <mxGeometry x="355" y="475" width="10" height="10" as="geometry" />
        </mxCell>
        <mxCell id="FI1ZCEWXshxIChQXKT9G-8" value="" style="ellipse;whiteSpace=wrap;html=1;aspect=fixed;strokeColor=#000000;" parent="FI1ZCEWXshxIChQXKT9G-2" vertex="1">
          <mxGeometry x="381" y="503" width="10" height="10" as="geometry" />
        </mxCell>
        <mxCell id="FI1ZCEWXshxIChQXKT9G-9" value="" style="ellipse;whiteSpace=wrap;html=1;aspect=fixed;strokeColor=#000000;" parent="FI1ZCEWXshxIChQXKT9G-2" vertex="1">
          <mxGeometry x="383" y="446" width="10" height="10" as="geometry" />
        </mxCell>
        <mxCell id="FI1ZCEWXshxIChQXKT9G-11" value="" style="ellipse;whiteSpace=wrap;html=1;aspect=fixed;strokeColor=#000000;" parent="FI1ZCEWXshxIChQXKT9G-2" vertex="1">
          <mxGeometry x="355" y="514" width="10" height="10" as="geometry" />
        </mxCell>
        <mxCell id="FI1ZCEWXshxIChQXKT9G-22" value="" style="ellipse;whiteSpace=wrap;html=1;aspect=fixed;strokeColor=#000000;" parent="FI1ZCEWXshxIChQXKT9G-2" vertex="1">
          <mxGeometry x="410" y="473" width="10" height="10" as="geometry" />
        </mxCell>
        <mxCell id="FI1ZCEWXshxIChQXKT9G-27" value="" style="ellipse;whiteSpace=wrap;html=1;aspect=fixed;strokeColor=#000000;" parent="FI1ZCEWXshxIChQXKT9G-2" vertex="1">
          <mxGeometry x="355" y="555" width="10" height="10" as="geometry" />
        </mxCell>
        <mxCell id="FI1ZCEWXshxIChQXKT9G-28" value="" style="ellipse;whiteSpace=wrap;html=1;aspect=fixed;strokeColor=#000000;" parent="FI1ZCEWXshxIChQXKT9G-2" vertex="1">
          <mxGeometry x="420" y="503" width="10" height="10" as="geometry" />
        </mxCell>
        <mxCell id="cDLoAeZumCPzplCaYUsG-1" value="" style="ellipse;whiteSpace=wrap;html=1;aspect=fixed;strokeColor=#000000;" parent="FI1ZCEWXshxIChQXKT9G-2" vertex="1">
          <mxGeometry x="409" y="529" width="10" height="10" as="geometry" />
        </mxCell>
        <mxCell id="huqLMEuDd-iwsDeeU7Vt-10" value="Line" style="" parent="0" />
        <mxCell id="huqLMEuDd-iwsDeeU7Vt-51" value="" style="endArrow=classicThin;html=1;rounded=0;dashed=1;endFill=1;startArrow=classicThin;startFill=1;strokeWidth=0.5;" parent="huqLMEuDd-iwsDeeU7Vt-10" edge="1">
          <mxGeometry width="50" height="50" relative="1" as="geometry">
            <mxPoint x="337" y="428" as="sourcePoint" />
            <mxPoint x="324" y="440" as="targetPoint" />
          </mxGeometry>
        </mxCell>
        <mxCell id="huqLMEuDd-iwsDeeU7Vt-52" value="" style="endArrow=classicThin;html=1;rounded=0;dashed=1;endFill=1;startArrow=classicThin;startFill=1;strokeWidth=0.5;" parent="huqLMEuDd-iwsDeeU7Vt-10" edge="1">
          <mxGeometry width="50" height="50" relative="1" as="geometry">
            <mxPoint x="427" y="438" as="sourcePoint" />
            <mxPoint x="414.9999999999999" y="425" as="targetPoint" />
          </mxGeometry>
        </mxCell>
        <mxCell id="huqLMEuDd-iwsDeeU7Vt-18" value="" style="endArrow=classicThin;html=1;rounded=0;dashed=1;strokeColor=default;startArrow=classicThin;startFill=1;endFill=1;strokeWidth=0.5;" parent="huqLMEuDd-iwsDeeU7Vt-10" edge="1">
          <mxGeometry width="50" height="50" relative="1" as="geometry">
            <mxPoint x="435" y="458" as="sourcePoint" />
            <mxPoint x="407.9999999999999" y="431" as="targetPoint" />
          </mxGeometry>
        </mxCell>
        <mxCell id="huqLMEuDd-iwsDeeU7Vt-45" value="" style="endArrow=none;html=1;rounded=0;" parent="huqLMEuDd-iwsDeeU7Vt-10" edge="1">
          <mxGeometry width="50" height="50" relative="1" as="geometry">
            <mxPoint x="323" y="439" as="sourcePoint" />
            <mxPoint x="357.9999999999999" y="479" as="targetPoint" />
          </mxGeometry>
        </mxCell>
        <mxCell id="huqLMEuDd-iwsDeeU7Vt-46" value="" style="endArrow=classicThin;html=1;rounded=0;dashed=1;endFill=1;startArrow=classicThin;startFill=1;strokeWidth=0.5;" parent="huqLMEuDd-iwsDeeU7Vt-10" edge="1">
          <mxGeometry width="50" height="50" relative="1" as="geometry">
            <mxPoint x="359" y="418" as="sourcePoint" />
            <mxPoint x="329.9999999999999" y="447" as="targetPoint" />
          </mxGeometry>
        </mxCell>
        <mxCell id="FI1ZCEWXshxIChQXKT9G-18" value="" style="endArrow=none;html=1;rounded=0;" parent="huqLMEuDd-iwsDeeU7Vt-10" edge="1">
          <mxGeometry width="50" height="50" relative="1" as="geometry">
            <mxPoint x="336" y="426" as="sourcePoint" />
            <mxPoint x="370.9999999999999" y="467" as="targetPoint" />
          </mxGeometry>
        </mxCell>
        <mxCell id="FI1ZCEWXshxIChQXKT9G-19" value="" style="endArrow=none;html=1;rounded=0;" parent="huqLMEuDd-iwsDeeU7Vt-10" edge="1">
          <mxGeometry width="50" height="50" relative="1" as="geometry">
            <mxPoint x="359" y="417" as="sourcePoint" />
            <mxPoint x="387.9999999999999" y="450" as="targetPoint" />
          </mxGeometry>
        </mxCell>
        <mxCell id="FI1ZCEWXshxIChQXKT9G-20" value="" style="endArrow=none;html=1;rounded=0;" parent="huqLMEuDd-iwsDeeU7Vt-10" edge="1">
          <mxGeometry width="50" height="50" relative="1" as="geometry">
            <mxPoint x="389" y="450" as="sourcePoint" />
            <mxPoint x="420" y="420" as="targetPoint" />
          </mxGeometry>
        </mxCell>
        <mxCell id="FI1ZCEWXshxIChQXKT9G-21" value="" style="endArrow=none;html=1;rounded=0;" parent="huqLMEuDd-iwsDeeU7Vt-10" edge="1">
          <mxGeometry width="50" height="50" relative="1" as="geometry">
            <mxPoint x="415" y="479" as="sourcePoint" />
            <mxPoint x="452" y="442" as="targetPoint" />
          </mxGeometry>
        </mxCell>
        <mxCell id="FI1ZCEWXshxIChQXKT9G-23" value="" style="endArrow=none;html=1;rounded=0;" parent="huqLMEuDd-iwsDeeU7Vt-10" edge="1">
          <mxGeometry width="50" height="50" relative="1" as="geometry">
            <mxPoint x="402" y="463" as="sourcePoint" />
            <mxPoint x="429" y="436" as="targetPoint" />
          </mxGeometry>
        </mxCell>
        <mxCell id="FI1ZCEWXshxIChQXKT9G-36" value="" style="endArrow=classic;html=1;rounded=0;dashed=1;strokeColor=#FF8000;" parent="huqLMEuDd-iwsDeeU7Vt-10" edge="1">
          <mxGeometry width="50" height="50" relative="1" as="geometry">
            <mxPoint x="480" y="499" as="sourcePoint" />
            <mxPoint x="425" y="484" as="targetPoint" />
          </mxGeometry>
        </mxCell>
        <mxCell id="cDLoAeZumCPzplCaYUsG-7" value="" style="endArrow=classic;html=1;rounded=0;dashed=1;strokeColor=#FF8000;" parent="huqLMEuDd-iwsDeeU7Vt-10" edge="1">
          <mxGeometry width="50" height="50" relative="1" as="geometry">
            <mxPoint x="460" y="520" as="sourcePoint" />
            <mxPoint x="436" y="514" as="targetPoint" />
          </mxGeometry>
        </mxCell>
        <mxCell id="cDLoAeZumCPzplCaYUsG-8" value="" style="endArrow=classic;html=1;rounded=0;dashed=1;strokeColor=#FF8000;" parent="huqLMEuDd-iwsDeeU7Vt-10" edge="1">
          <mxGeometry width="50" height="50" relative="1" as="geometry">
            <mxPoint x="455" y="546" as="sourcePoint" />
            <mxPoint x="425" y="538" as="targetPoint" />
          </mxGeometry>
        </mxCell>
        <mxCell id="cDLoAeZumCPzplCaYUsG-9" value="" style="endArrow=classic;html=1;rounded=0;dashed=1;strokeColor=#FF8000;" parent="huqLMEuDd-iwsDeeU7Vt-10" edge="1">
          <mxGeometry width="50" height="50" relative="1" as="geometry">
            <mxPoint x="431" y="562" as="sourcePoint" />
            <mxPoint x="370" y="546" as="targetPoint" />
          </mxGeometry>
        </mxCell>
        <mxCell id="huqLMEuDd-iwsDeeU7Vt-9" value="Math" style="" parent="0" />
        <mxCell id="huqLMEuDd-iwsDeeU7Vt-11" value="$$m_1, I_1$$" style="text;html=1;align=center;verticalAlign=middle;resizable=0;points=[];autosize=1;strokeColor=none;fillColor=none;fontSize=10;" parent="huqLMEuDd-iwsDeeU7Vt-9" vertex="1">
          <mxGeometry x="283" y="453" width="80" height="30" as="geometry" />
        </mxCell>
        <mxCell id="huqLMEuDd-iwsDeeU7Vt-24" value="$$l_1$$" style="text;html=1;align=center;verticalAlign=middle;resizable=0;points=[];autosize=1;strokeColor=none;fillColor=none;fontSize=10;" parent="huqLMEuDd-iwsDeeU7Vt-9" vertex="1">
          <mxGeometry x="315" y="405" width="60" height="30" as="geometry" />
        </mxCell>
        <mxCell id="huqLMEuDd-iwsDeeU7Vt-25" value="$$l_2$$" style="text;html=1;align=center;verticalAlign=middle;resizable=0;points=[];autosize=1;strokeColor=none;fillColor=none;fontSize=10;" parent="huqLMEuDd-iwsDeeU7Vt-9" vertex="1">
          <mxGeometry x="404" y="429" width="60" height="30" as="geometry" />
        </mxCell>
        <mxCell id="huqLMEuDd-iwsDeeU7Vt-26" value="$$m_2, I_2$$" style="text;html=1;align=center;verticalAlign=middle;resizable=0;points=[];autosize=1;strokeColor=none;fillColor=none;fontSize=10;" parent="huqLMEuDd-iwsDeeU7Vt-9" vertex="1">
          <mxGeometry x="408" y="452" width="80" height="30" as="geometry" />
        </mxCell>
        <mxCell id="huqLMEuDd-iwsDeeU7Vt-64" value="$$q_1$$" style="text;html=1;align=center;verticalAlign=middle;resizable=0;points=[];autosize=1;strokeColor=none;fillColor=none;fontSize=10;" parent="huqLMEuDd-iwsDeeU7Vt-9" vertex="1">
          <mxGeometry x="356" y="456" width="60" height="30" as="geometry" />
        </mxCell>
        <mxCell id="huqLMEuDd-iwsDeeU7Vt-65" value="$$q_2$$" style="text;html=1;align=center;verticalAlign=middle;resizable=0;points=[];autosize=1;strokeColor=none;fillColor=none;fontSize=10;" parent="huqLMEuDd-iwsDeeU7Vt-9" vertex="1">
          <mxGeometry x="376" y="428" width="60" height="30" as="geometry" />
        </mxCell>
        <mxCell id="huqLMEuDd-iwsDeeU7Vt-72" value="$${l_c}_1$$" style="text;html=1;align=center;verticalAlign=middle;resizable=0;points=[];autosize=1;strokeColor=none;fillColor=none;fontSize=10;" parent="huqLMEuDd-iwsDeeU7Vt-9" vertex="1">
          <mxGeometry x="280" y="410" width="80" height="30" as="geometry" />
        </mxCell>
        <mxCell id="huqLMEuDd-iwsDeeU7Vt-73" value="$${l_c}_2$$" style="text;html=1;align=center;verticalAlign=middle;resizable=0;points=[];autosize=1;strokeColor=none;fillColor=none;fontSize=10;" parent="huqLMEuDd-iwsDeeU7Vt-9" vertex="1">
          <mxGeometry x="391" y="409" width="80" height="30" as="geometry" />
        </mxCell>
        <mxCell id="FI1ZCEWXshxIChQXKT9G-32" value="$${\boldsymbol{q}_{d}}^{\rm{origin}}$$" style="text;html=1;align=center;verticalAlign=middle;resizable=0;points=[];autosize=1;strokeColor=none;fillColor=none;fontSize=10;" parent="huqLMEuDd-iwsDeeU7Vt-9" vertex="1">
          <mxGeometry x="353" y="550" width="190" height="30" as="geometry" />
        </mxCell>
        <mxCell id="FI1ZCEWXshxIChQXKT9G-33" value="$${\boldsymbol{q}_{d}^{(1)}}$$" style="text;html=1;align=center;verticalAlign=middle;resizable=0;points=[];autosize=1;strokeColor=none;fillColor=none;fontSize=10;" parent="huqLMEuDd-iwsDeeU7Vt-9" vertex="1">
          <mxGeometry x="412" y="482" width="160" height="30" as="geometry" />
        </mxCell>
        <mxCell id="FI1ZCEWXshxIChQXKT9G-34" value="$${\boldsymbol{q}_{d}^{(2)}}$$" style="text;html=1;align=center;verticalAlign=middle;resizable=0;points=[];autosize=1;strokeColor=none;fillColor=none;fontSize=10;" parent="huqLMEuDd-iwsDeeU7Vt-9" vertex="1">
          <mxGeometry x="397" y="509" width="160" height="30" as="geometry" />
        </mxCell>
        <mxCell id="cDLoAeZumCPzplCaYUsG-6" value="$${\boldsymbol{q}_{d}^{(0)}}$$" style="text;html=1;align=center;verticalAlign=middle;resizable=0;points=[];autosize=1;strokeColor=none;fillColor=none;fontSize=10;" parent="huqLMEuDd-iwsDeeU7Vt-9" vertex="1">
          <mxGeometry x="386" y="533" width="160" height="30" as="geometry" />
        </mxCell>
        <mxCell id="huqLMEuDd-iwsDeeU7Vt-27" value="Axes" style="locked=1;" parent="0" />
        <mxCell id="huqLMEuDd-iwsDeeU7Vt-30" value="" style="endArrow=classic;startArrow=classic;html=1;rounded=0;" parent="huqLMEuDd-iwsDeeU7Vt-27" edge="1">
          <mxGeometry width="50" height="50" relative="1" as="geometry">
            <mxPoint x="300" y="480" as="sourcePoint" />
            <mxPoint x="460" y="480" as="targetPoint" />
          </mxGeometry>
        </mxCell>
        <mxCell id="huqLMEuDd-iwsDeeU7Vt-42" value="" style="endArrow=classic;startArrow=classic;html=1;rounded=0;" parent="huqLMEuDd-iwsDeeU7Vt-27" edge="1">
          <mxGeometry width="50" height="50" relative="1" as="geometry">
            <mxPoint x="360" y="590" as="sourcePoint" />
            <mxPoint x="360" y="424" as="targetPoint" />
          </mxGeometry>
        </mxCell>
        <mxCell id="huqLMEuDd-iwsDeeU7Vt-59" value="" style="endArrow=none;dashed=1;html=1;rounded=0;" parent="huqLMEuDd-iwsDeeU7Vt-27" edge="1">
          <mxGeometry width="50" height="50" relative="1" as="geometry">
            <mxPoint x="337" y="501" as="sourcePoint" />
            <mxPoint x="389" y="450" as="targetPoint" />
          </mxGeometry>
        </mxCell>
        <mxCell id="huqLMEuDd-iwsDeeU7Vt-61" value="" style="endArrow=none;dashed=1;html=1;rounded=0;" parent="huqLMEuDd-iwsDeeU7Vt-27" edge="1">
          <mxGeometry width="50" height="50" relative="1" as="geometry">
            <mxPoint x="388" y="451" as="sourcePoint" />
            <mxPoint x="425" y="488" as="targetPoint" />
          </mxGeometry>
        </mxCell>
        <mxCell id="huqLMEuDd-iwsDeeU7Vt-56" value="Angle" style="locked=1;" parent="0" />
        <mxCell id="huqLMEuDd-iwsDeeU7Vt-57" value="" style="verticalLabelPosition=bottom;verticalAlign=top;html=1;shape=mxgraph.basic.arc;startAngle=0.14027892075056086;endAngle=0.2516578040311922;" parent="huqLMEuDd-iwsDeeU7Vt-56" vertex="1">
          <mxGeometry x="330" y="455" width="50" height="50" as="geometry" />
        </mxCell>
        <mxCell id="huqLMEuDd-iwsDeeU7Vt-62" value="" style="verticalLabelPosition=bottom;verticalAlign=top;html=1;shape=mxgraph.basic.arc;startAngle=0.8706995619472834;endAngle=0.11002968955562942;rotation=90;" parent="huqLMEuDd-iwsDeeU7Vt-56" vertex="1">
          <mxGeometry x="379" y="443" width="19" height="17" as="geometry" />
        </mxCell>
      </root>
    </mxGraphModel>
  </diagram>
</mxfile>
